<?xml version="1.0" standalone="no"?>
<!DOCTYPE svg PUBLIC "-//W3C//DTD SVG 20010904//EN"
 "http://www.w3.org/TR/2001/REC-SVG-20010904/DTD/svg10.dtd">
<svg version="1.0" xmlns="http://www.w3.org/2000/svg"
 width="1024.000000pt" height="1024.000000pt" viewBox="0 0 1024.000000 1024.000000"
 preserveAspectRatio="xMidYMid meet">
<metadata>
Created by potrace 1.11, written by Peter Selinger 2001-2013
</metadata>
<g transform="translate(0.000000,1024.000000) scale(0.100000,-0.100000)"
fill="#000000" stroke="none">
<path d="M0 7649 l0 -2591 22 5 c13 3 35 9 50 12 24 6 28 3 38 -32 6 -21 87
-321 179 -668 93 -346 179 -656 191 -687 76 -203 238 -308 431 -279 193 30
313 121 360 275 39 125 33 157 -170 917 -100 372 -181 683 -181 690 0 17 517
157 529 143 4 -5 36 -115 70 -244 35 -129 119 -443 187 -697 68 -254 128 -492
135 -529 16 -95 6 -301 -19 -387 -112 -372 -460 -628 -923 -678 -215 -23 -454
32 -612 143 -92 64 -200 186 -258 291 l-29 52 0 -1692 0 -1693 5120 0 5120 0
0 2724 0 2723 -66 -18 c-49 -13 -66 -15 -69 -6 -3 7 -58 212 -124 457 -66 245
-128 466 -139 491 -38 88 -123 158 -193 159 -47 0 -129 -31 -165 -62 -64 -56
-79 -99 -79 -218 1 -102 4 -117 112 -518 62 -227 113 -420 115 -429 3 -14 -39
-28 -251 -86 -139 -37 -254 -67 -256 -65 -1 2 -57 208 -124 458 -68 250 -131
475 -142 499 -46 105 -103 151 -189 151 -118 0 -193 -48 -231 -148 -39 -104
-28 -177 100 -647 61 -225 114 -417 116 -426 4 -13 -40 -28 -250 -84 -141 -37
-258 -65 -262 -62 -3 4 -37 123 -75 264 -38 142 -129 485 -204 762 -74 277
-132 507 -127 511 8 7 461 130 480 130 5 0 20 -39 33 -87 24 -92 39 -132 40
-103 0 34 63 144 111 195 97 102 215 162 369 186 147 23 293 -20 402 -119 l36
-33 36 73 c81 167 209 269 402 318 139 36 280 23 397 -36 28 -15 85 -59 124
-99 l73 -73 0 1729 0 1729 -5120 0 -5120 0 0 -2591z m7101 -1430 c140 -40 255
-147 339 -314 45 -89 66 -157 186 -608 75 -279 135 -509 133 -511 -7 -6 -502
-136 -505 -133 -2 1 -57 205 -124 452 -66 248 -133 477 -149 510 -48 102 -109
148 -197 147 -143 -1 -244 -118 -244 -281 0 -62 7 -90 144 -600 53 -195 94
-356 93 -358 -12 -11 -500 -134 -506 -127 -4 5 -61 206 -125 447 -64 241 -126
462 -136 491 -24 64 -82 134 -127 152 -66 28 -167 12 -233 -38 -17 -12 -43
-47 -58 -78 -24 -49 -27 -65 -26 -155 1 -94 8 -123 117 -525 64 -233 114 -426
112 -429 -5 -4 -456 -127 -489 -133 -17 -3 -23 11 -47 97 -150 555 -379 1419
-379 1429 0 8 86 35 233 75 127 34 237 61 244 61 6 0 18 -24 26 -52 43 -152
44 -154 51 -133 61 172 187 294 363 353 66 21 96 26 193 26 103 0 122 -3 181
-28 37 -15 93 -48 125 -74 l59 -48 37 77 c69 141 186 243 336 293 143 48 246
52 373 15z m-2848 -763 c148 -53 255 -154 336 -320 40 -81 64 -154 121 -371
40 -148 101 -376 136 -505 35 -128 61 -237 56 -241 -4 -3 -113 -34 -242 -68
-129 -34 -242 -64 -251 -67 -12 -3 -21 17 -41 93 -141 533 -224 828 -249 879
-52 110 -131 156 -230 135 -86 -19 -136 -56 -175 -131 -28 -56 -31 -189 -5
-286 11 -43 65 -245 119 -447 l99 -369 -22 -8 c-48 -18 -486 -132 -491 -127
-3 2 -60 211 -129 465 -117 435 -141 509 -187 575 -58 82 -211 90 -303 15 -57
-48 -78 -99 -83 -203 -4 -89 -2 -96 111 -520 64 -236 118 -437 122 -446 5 -13
-24 -24 -172 -64 -287 -76 -342 -90 -346 -85 -2 3 -54 196 -116 430 -62 234
-153 575 -203 758 -49 183 -88 339 -85 345 4 11 451 137 484 137 6 0 21 -40
32 -88 22 -89 41 -134 41 -101 0 27 39 106 76 154 72 96 169 162 289 202 108
35 260 37 349 5 67 -25 141 -69 176 -107 l24 -25 34 67 c63 126 150 217 259
272 143 72 339 91 466 47z"/>
</g>
</svg>
